<?xml version="1.0" encoding="UTF-8" standalone="no"?>
<!-- Created with Inkscape (http://www.inkscape.org/) -->

<svg
   xmlns:dc="http://purl.org/dc/elements/1.1/"
   xmlns:cc="http://creativecommons.org/ns#"
   xmlns:rdf="http://www.w3.org/1999/02/22-rdf-syntax-ns#"
   xmlns:svg="http://www.w3.org/2000/svg"
   xmlns="http://www.w3.org/2000/svg"
   xmlns:sodipodi="http://sodipodi.sourceforge.net/DTD/sodipodi-0.dtd"
   xmlns:inkscape="http://www.inkscape.org/namespaces/inkscape"
   width="3640"
   height="1520"
   id="svg2"
   version="1.1"
   inkscape:version="0.48.5 r10040"
   sodipodi:docname="overview.svg">
  <defs
     id="defs4">
    <marker
       inkscape:stockid="Arrow1Lend"
       orient="auto"
       refY="0"
       refX="0"
       id="Arrow1Lend"
       style="overflow:visible">
      <path
         id="path5186"
         d="M 0,0 5,-5 -12.5,0 5,5 0,0 z"
         style="fill-rule:evenodd;stroke:#000000;stroke-width:1pt"
         transform="matrix(-0.8,0,0,-0.8,-10,0)"
         inkscape:connector-curvature="0" />
    </marker>
    <marker
       inkscape:stockid="Arrow2Lend"
       orient="auto"
       refY="0"
       refX="0"
       id="Arrow2Lend"
       style="overflow:visible">
      <path
         id="path5204"
         style="fill-rule:evenodd;stroke-width:0.625;stroke-linejoin:round"
         d="M 8.7185878,4.0337352 -2.2072895,0.01601326 8.7185884,-4.0017078 c -1.7454984,2.3720609 -1.7354408,5.6174519 -6e-7,8.035443 z"
         transform="matrix(-1.1,0,0,-1.1,-1.1,0)"
         inkscape:connector-curvature="0" />
    </marker>
    <marker
       inkscape:stockid="Arrow2Lstart"
       orient="auto"
       refY="0"
       refX="0"
       id="Arrow2Lstart"
       style="overflow:visible">
      <path
         id="path5201"
         style="fill-rule:evenodd;stroke-width:0.625;stroke-linejoin:round"
         d="M 8.7185878,4.0337352 -2.2072895,0.01601326 8.7185884,-4.0017078 c -1.7454984,2.3720609 -1.7354408,5.6174519 -6e-7,8.035443 z"
         transform="matrix(1.1,0,0,1.1,1.1,0)"
         inkscape:connector-curvature="0" />
    </marker>
  </defs>
  <sodipodi:namedview
     id="base"
     pagecolor="#ffffff"
     bordercolor="#666666"
     borderopacity="1.0"
     inkscape:pageopacity="0.0"
     inkscape:pageshadow="2"
     inkscape:zoom="0.25000001"
     inkscape:cx="2264.7083"
     inkscape:cy="841.25066"
     inkscape:document-units="px"
     inkscape:current-layer="layer1"
     showgrid="false"
     inkscape:window-width="1440"
     inkscape:window-height="855"
     inkscape:window-x="0"
     inkscape:window-y="1"
     inkscape:window-maximized="1"
     fit-margin-top="0"
     fit-margin-left="0"
     fit-margin-right="0"
     fit-margin-bottom="0"
     inkscape:snap-global="true">
    <inkscape:grid
       type="xygrid"
       id="grid3192"
       empspacing="5"
       visible="true"
       enabled="true"
       snapvisiblegridlinesonly="true"
       originx="20px"
       originy="20.000028px" />
  </sodipodi:namedview>
  <metadata
     id="metadata7">
    <rdf:RDF>
      <cc:Work
         rdf:about="">
        <dc:format>image/svg+xml</dc:format>
        <dc:type
           rdf:resource="http://purl.org/dc/dcmitype/StillImage" />
        <dc:title />
      </cc:Work>
    </rdf:RDF>
  </metadata>
  <g
     inkscape:label="Ebene 1"
     inkscape:groupmode="layer"
     id="layer1"
     transform="translate(81.761993,1353.6136)">
    <path
       sodipodi:nodetypes="cc"
       inkscape:connector-curvature="0"
       id="path6789"
       d="m 2951.014,-920.51407 c 101.5153,126.30255 128.4562,219.12305 162.1782,352.80732"
       style="fill:none;stroke:#e8e8e8;stroke-width:90;stroke-linecap:square;stroke-linejoin:miter;stroke-miterlimit:0.01;stroke-opacity:1;stroke-dasharray:none;marker-start:none;marker-end:none" />
    <path
       inkscape:transform-center-y="17.380159"
       inkscape:transform-center-x="11.350342"
       transform="matrix(0.47511515,0.58595223,-0.58595223,0.47511515,3673.4609,-1464.9986)"
       d="m 623.33852,1414.683 -127.49145,6.112 -127.49144,6.1119 58.4526,-113.4668 58.4526,-113.4668 69.03885,107.3549 z"
       inkscape:randomized="0"
       inkscape:rounded="0"
       inkscape:flatsided="false"
       sodipodi:arg2="1.5228928"
       sodipodi:arg1="0.47569522"
       sodipodi:r2="73.691757"
       sodipodi:r1="147.38351"
       sodipodi:cy="1347.1877"
       sodipodi:cx="492.31833"
       sodipodi:sides="3"
       id="path6795"
       style="fill:#e8e8e8;fill-opacity:1;stroke:none"
       sodipodi:type="star" />
    <path
       style="fill:none;stroke:#e8e8e8;stroke-width:90;stroke-linecap:square;stroke-linejoin:miter;stroke-miterlimit:0.01;stroke-opacity:1;stroke-dasharray:none;marker-start:none;marker-end:none"
       d="m 2029.9023,-491.45348 c 26.0794,-150.0999 84.7828,-255.14219 170.1188,-369.78892"
       id="path6787"
       inkscape:connector-curvature="0"
       sodipodi:nodetypes="cc" />
    <path
       sodipodi:nodetypes="cc"
       inkscape:connector-curvature="0"
       id="path6785"
       d="m 719.70031,-658.20646 c 283.43299,7.99601 461.96209,46.6013 741.84329,277.37145"
       style="fill:none;stroke:#e8e8e8;stroke-width:90;stroke-linecap:square;stroke-linejoin:miter;stroke-miterlimit:0.01;stroke-opacity:1;stroke-dasharray:none;marker-start:none;marker-end:none" />
    <path
       style="fill:none;stroke:#e8e8e8;stroke-width:90;stroke-linecap:square;stroke-linejoin:miter;stroke-miterlimit:0.01;stroke-opacity:1;stroke-dasharray:none;marker-start:none;marker-end:none"
       d="M 517.21454,-217.50219 C 785.48279,29.428838 1002.9986,-31.940048 1310.6719,-47.329049"
       id="path5177"
       inkscape:connector-curvature="0"
       sodipodi:nodetypes="cc" />
    <g
       id="g3680"
       transform="matrix(0.50495341,0,0,0.50495341,2548.606,-785.08534)">
      <g
         transform="matrix(1.4134826,0,0,1.4134826,720.77556,1021.845)"
         id="layer1-8"
         inkscape:label="Layer 1">
        <g
           id="text4373"
           style="font-size:40px;font-style:normal;font-weight:normal;line-height:125%;letter-spacing:0px;word-spacing:0px;fill:#326de5;fill-opacity:1;stroke:none;font-family:Sans">
          <path
             id="path2985"
             style="font-size:135px;font-variant:normal;font-weight:bold;font-stretch:normal;fill:#326de5;font-family:Ubuntu;-inkscape-font-specification:Ubuntu Bold"
             d="m 36.220121,374.76552 c 1.979968,-2.15995 4.004966,-4.40995 6.075,-6.75 2.159962,-2.33995 4.22996,-4.63494 6.21,-6.885 1.979956,-2.33994 3.824954,-4.54494 5.535,-6.615 1.799951,-2.06993 3.329949,-3.86993 4.59,-5.4 l 23.895,0 c -4.770071,5.49006 -9.450067,10.75506 -14.04,15.795 -4.500057,4.95005 -9.450053,10.08004 -14.85,15.39 2.69995,2.43004 5.489947,5.35503 8.37,8.775 2.879942,3.33003 5.669939,6.79502 8.37,10.395 2.699933,3.60002 5.174931,7.20001 7.425,10.8 2.249926,3.60001 4.139925,6.885 5.67,9.855 l -23.085,0 c -1.440052,-2.34 -3.105051,-4.905 -4.995,-7.695 -1.800047,-2.87999 -3.735045,-5.71499 -5.805,-8.505 -2.070041,-2.87998 -4.275039,-5.62498 -6.615,-8.235 -2.250034,-2.60997 -4.500032,-4.81497 -6.75,-6.615 l 0,31.05 -20.115,0 0,-101.52 20.115,-3.24 0,59.4"
             inkscape:connector-curvature="0" />
          <path
             id="path2987"
             style="font-size:135px;font-variant:normal;font-weight:bold;font-stretch:normal;fill:#326de5;font-family:Ubuntu;-inkscape-font-specification:Ubuntu Bold"
             d="m 153.44864,417.69552 c -3.42007,0.99 -7.83007,1.89 -13.23,2.7 -5.40005,0.9 -11.07005,1.35 -17.01,1.35 -6.03004,0 -11.07003,-0.81 -15.12,-2.43 -3.96002,-1.62 -7.11002,-3.87 -9.450004,-6.75 -2.340012,-2.96999 -4.005011,-6.47999 -4.995,-10.53 -0.990009,-4.04998 -1.485008,-8.50497 -1.485,-13.365 l 0,-39.555 20.115004,0 0,37.125 c -3e-5,6.48003 0.85497,11.16002 2.565,14.04 1.70996,2.88002 4.90496,4.32001 9.585,4.32 1.43995,10e-6 2.96995,-0.045 4.59,-0.135 1.61995,-0.17999 3.05995,-0.35999 4.32,-0.54 l 0,-54.81 20.115,0 0,68.58"
             inkscape:connector-curvature="0" />
          <path
             id="path2989"
             style="font-size:135px;font-variant:normal;font-weight:bold;font-stretch:normal;fill:#326de5;font-family:Ubuntu;-inkscape-font-specification:Ubuntu Bold"
             d="m 217.95754,384.08052 c -5e-5,-12.95995 -4.77005,-19.43995 -14.31,-19.44 -2.07004,5e-5 -4.14003,0.27005 -6.21,0.81 -1.98003,0.54005 -3.60003,1.21505 -4.86,2.025 l 0,36.585 c 0.98997,0.18001 2.24997,0.36001 3.78,0.54 1.52997,0.09 3.19497,0.13501 4.995,0.135 5.48996,10e-6 9.62995,-1.88998 12.42,-5.67 2.78995,-3.77998 4.18495,-8.77497 4.185,-14.985 m 20.52,0.54 c -7e-5,5.67003 -0.85507,10.80002 -2.565,15.39 -1.62007,4.59001 -4.00507,8.50501 -7.155,11.745 -3.15006,3.24 -7.02006,5.76 -11.61,7.56 -4.59005,1.71 -9.81004,2.565 -15.66,2.565 -2.43003,0 -4.99503,-0.135 -7.695,-0.405 -2.61003,-0.18 -5.22002,-0.45 -7.83,-0.81 -2.52002,-0.36 -4.95002,-0.765 -7.29,-1.215 -2.34001,-0.54 -4.41001,-1.08 -6.21,-1.62 l 0,-99.225 20.115,-3.24 0,35.37 c 2.24997,-0.98993 4.58997,-1.75493 7.02,-2.295 2.42996,-0.53993 5.03996,-0.80993 7.83,-0.81 5.03995,7e-5 9.49495,0.90007 13.365,2.7 3.86994,1.71007 7.10994,4.18506 9.72,7.425 2.60993,3.24006 4.58993,7.15505 5.94,11.745 1.34993,4.50004 2.02493,9.54004 2.025,15.12"
             inkscape:connector-curvature="0" />
          <path
             id="path2991"
             style="font-size:135px;font-variant:normal;font-weight:bold;font-stretch:normal;fill:#326de5;font-family:Ubuntu;-inkscape-font-specification:Ubuntu Bold"
             d="m 250.56215,385.16052 c 0,-6.29996 0.945,-11.78995 2.835,-16.47 1.97999,-4.76994 4.54499,-8.72994 7.695,-11.88 3.14998,-3.14993 6.74998,-5.53493 10.8,-7.155 4.13997,-1.61993 8.36997,-2.42993 12.69,-2.43 10.07995,7e-5 18.04494,3.10507 23.895,9.315 5.84993,6.12006 8.77493,15.16505 8.775,27.135 -7e-5,1.17003 -0.0451,2.47503 -0.135,3.915 -0.0901,1.35003 -0.18007,2.56503 -0.27,3.645 l -45.63,0 c 0.44997,4.14002 2.38497,7.42502 5.805,9.855 3.41997,2.43002 8.00996,3.64501 13.77,3.645 3.68995,10e-6 7.28995,-0.31499 10.8,-0.945 3.59994,-0.71998 6.52494,-1.57498 8.775,-2.565 l 2.7,16.335 c -1.08007,0.54 -2.52006,1.08 -4.32,1.62 -1.80006,0.54 -3.82506,0.99 -6.075,1.35 -2.16005,0.45 -4.50005,0.81 -7.02,1.08 -2.52005,0.27 -5.04004,0.405 -7.56,0.405 -6.39004,0 -11.97003,-0.945 -16.74,-2.835 -4.68002,-1.89 -8.59502,-4.455 -11.745,-7.695 -3.06001,-3.32999 -5.35501,-7.24499 -6.885,-11.745 -1.44,-4.49998 -2.16,-9.35997 -2.16,-14.58 m 47.25,-7.695 c -0.09,-1.70996 -0.40505,-3.37496 -0.945,-4.995 -0.45005,-1.61995 -1.21505,-3.05995 -2.295,-4.32 -0.99005,-1.25995 -2.29505,-2.29495 -3.915,-3.105 -1.53004,-0.80995 -3.46504,-1.21494 -5.805,-1.215 -2.25004,6e-5 -4.18503,0.40505 -5.805,1.215 -1.62003,0.72005 -2.97003,1.71005 -4.05,2.97 -1.08003,1.26005 -1.93503,2.74505 -2.565,4.455 -0.54003,1.62004 -0.94502,3.28504 -1.215,4.995 l 26.595,0"
             inkscape:connector-curvature="0" />
          <path
             id="path2993"
             style="font-size:135px;font-variant:normal;font-weight:bold;font-stretch:normal;fill:#326de5;font-family:Ubuntu;-inkscape-font-specification:Ubuntu Bold"
             d="m 375.57004,366.93552 c -1.80005,-0.44995 -3.91505,-0.89995 -6.345,-1.35 -2.43004,-0.53995 -5.04004,-0.80995 -7.83,-0.81 -1.26003,5e-5 -2.79003,0.13505 -4.59,0.405 -1.71003,0.18005 -3.01503,0.40505 -3.915,0.675 l 0,54.27 -20.115,0 0,-67.23 c 3.59999,-1.25993 7.82999,-2.42993 12.69,-3.51 4.94998,-1.16993 10.43997,-1.75493 16.47,-1.755 1.07996,7e-5 2.38496,0.0901 3.915,0.27 1.52996,0.0901 3.05996,0.27007 4.59,0.54 1.52995,0.18007 3.05995,0.45007 4.59,0.81 1.52995,0.27007 2.83495,0.63007 3.915,1.08 l -3.375,16.605"
             inkscape:connector-curvature="0" />
          <path
             id="path2995"
             style="font-size:135px;font-variant:normal;font-weight:bold;font-stretch:normal;fill:#326de5;font-family:Ubuntu;-inkscape-font-specification:Ubuntu Bold"
             d="m 389.72817,351.54552 c 3.41998,-0.98993 7.82998,-1.88993 13.23,-2.7 5.39997,-0.89993 11.06996,-1.34993 17.01,-1.35 6.02995,7e-5 11.02495,0.81007 14.985,2.43 4.04994,1.53007 7.24494,3.73507 9.585,6.615 2.33993,2.88006 4.00493,6.30006 4.995,10.26 0.98993,3.96005 1.48493,8.37004 1.485,13.23 l 0,40.095 -20.115,0 0,-37.665 c -5e-5,-6.47996 -0.85505,-11.06995 -2.565,-13.77 -1.71005,-2.69995 -4.90505,-4.04995 -9.585,-4.05 -1.44004,5e-5 -2.97004,0.0901 -4.59,0.27 -1.62003,0.09 -3.06003,0.22505 -4.32,0.405 l 0,54.81 -20.115,0 0,-68.58"
             inkscape:connector-curvature="0" />
          <path
             id="path2997"
             style="font-size:135px;font-variant:normal;font-weight:bold;font-stretch:normal;fill:#326de5;font-family:Ubuntu;-inkscape-font-specification:Ubuntu Bold"
             d="m 465.98207,385.16052 c 0,-6.29996 0.945,-11.78995 2.835,-16.47 1.97999,-4.76994 4.54499,-8.72994 7.695,-11.88 3.14998,-3.14993 6.74998,-5.53493 10.8,-7.155 4.13997,-1.61993 8.36997,-2.42993 12.69,-2.43 10.07995,7e-5 18.04495,3.10507 23.895,9.315 5.84993,6.12006 8.77493,15.16505 8.775,27.135 -7e-5,1.17003 -0.0451,2.47503 -0.135,3.915 -0.0901,1.35003 -0.18007,2.56503 -0.27,3.645 l -45.63,0 c 0.44998,4.14002 2.38497,7.42502 5.805,9.855 3.41997,2.43002 8.00996,3.64501 13.77,3.645 3.68995,10e-6 7.28995,-0.31499 10.8,-0.945 3.59994,-0.71998 6.52494,-1.57498 8.775,-2.565 l 2.7,16.335 c -1.08006,0.54 -2.52006,1.08 -4.32,1.62 -1.80006,0.54 -3.82506,0.99 -6.075,1.35 -2.16005,0.45 -4.50005,0.81 -7.02,1.08 -2.52004,0.27 -5.04004,0.405 -7.56,0.405 -6.39003,0 -11.97003,-0.945 -16.74,-2.835 -4.68002,-1.89 -8.59501,-4.455 -11.745,-7.695 -3.06001,-3.32999 -5.35501,-7.24499 -6.885,-11.745 -1.44,-4.49998 -2.16,-9.35997 -2.16,-14.58 m 47.25,-7.695 c -0.0901,-1.70996 -0.40505,-3.37496 -0.945,-4.995 -0.45005,-1.61995 -1.21505,-3.05995 -2.295,-4.32 -0.99005,-1.25995 -2.29504,-2.29495 -3.915,-3.105 -1.53004,-0.80995 -3.46504,-1.21494 -5.805,-1.215 -2.25003,6e-5 -4.18503,0.40505 -5.805,1.215 -1.62003,0.72005 -2.97003,1.71005 -4.05,2.97 -1.08003,1.26005 -1.93502,2.74505 -2.565,4.455 -0.54002,1.62004 -0.94502,3.28504 -1.215,4.995 l 26.595,0"
             inkscape:connector-curvature="0" />
          <path
             id="path2999"
             style="font-size:135px;font-variant:normal;font-weight:bold;font-stretch:normal;fill:#326de5;font-family:Ubuntu;-inkscape-font-specification:Ubuntu Bold"
             d="m 547.51996,331.43052 20.115,-3.24 0,20.925 24.165,0 0,16.74 -24.165,0 0,24.975 c -2e-5,4.23002 0.71997,7.60502 2.16,10.125 1.52997,2.52002 4.54497,3.78001 9.045,3.78 2.15996,10e-6 4.36496,-0.17999 6.615,-0.54 2.33996,-0.44998 4.45495,-1.03498 6.345,-1.755 l 2.835,15.66 c -2.43005,0.99 -5.13005,1.845 -8.1,2.565 -2.97004,0.72 -6.61504,1.08 -10.935,1.08 -5.49003,0 -10.03502,-0.72 -13.635,-2.16 -3.60002,-1.53 -6.48001,-3.6 -8.64,-6.21 -2.16001,-2.69999 -3.69001,-5.93999 -4.59,-9.72 -0.81,-3.77998 -1.215,-7.96498 -1.215,-12.555 l 0,-59.67"
             inkscape:connector-curvature="0" />
          <path
             id="path3001"
             style="font-size:135px;font-variant:normal;font-weight:bold;font-stretch:normal;fill:#326de5;font-family:Ubuntu;-inkscape-font-specification:Ubuntu Bold"
             d="m 602.03676,385.16052 c 0,-6.29996 0.94499,-11.78995 2.835,-16.47 1.97999,-4.76994 4.54499,-8.72994 7.695,-11.88 3.14998,-3.14993 6.74998,-5.53493 10.8,-7.155 4.13997,-1.61993 8.36997,-2.42993 12.69,-2.43 10.07995,7e-5 18.04494,3.10507 23.895,9.315 5.84993,6.12006 8.77493,15.16505 8.775,27.135 -7e-5,1.17003 -0.0451,2.47503 -0.135,3.915 -0.0901,1.35003 -0.18007,2.56503 -0.27,3.645 l -45.63,0 c 0.44997,4.14002 2.38497,7.42502 5.805,9.855 3.41997,2.43002 8.00996,3.64501 13.77,3.645 3.68995,10e-6 7.28995,-0.31499 10.8,-0.945 3.59994,-0.71998 6.52494,-1.57498 8.775,-2.565 l 2.7,16.335 c -1.08007,0.54 -2.52006,1.08 -4.32,1.62 -1.80006,0.54 -3.82506,0.99 -6.075,1.35 -2.16005,0.45 -4.50005,0.81 -7.02,1.08 -2.52005,0.27 -5.04004,0.405 -7.56,0.405 -6.39004,0 -11.97003,-0.945 -16.74,-2.835 -4.68002,-1.89 -8.59502,-4.455 -11.745,-7.695 -3.06001,-3.32999 -5.35501,-7.24499 -6.885,-11.745 -1.44001,-4.49998 -2.16,-9.35997 -2.16,-14.58 m 47.25,-7.695 c -0.09,-1.70996 -0.40505,-3.37496 -0.945,-4.995 -0.45005,-1.61995 -1.21505,-3.05995 -2.295,-4.32 -0.99005,-1.25995 -2.29505,-2.29495 -3.915,-3.105 -1.53004,-0.80995 -3.46504,-1.21494 -5.805,-1.215 -2.25004,6e-5 -4.18503,0.40505 -5.805,1.215 -1.62003,0.72005 -2.97003,1.71005 -4.05,2.97 -1.08003,1.26005 -1.93503,2.74505 -2.565,4.455 -0.54003,1.62004 -0.94503,3.28504 -1.215,4.995 l 26.595,0"
             inkscape:connector-curvature="0" />
          <path
             id="path3003"
             style="font-size:135px;font-variant:normal;font-weight:bold;font-stretch:normal;fill:#326de5;font-family:Ubuntu;-inkscape-font-specification:Ubuntu Bold"
             d="m 704.63465,405.68052 c 3.68997,10e-6 6.29997,-0.35999 7.83,-1.08 1.52996,-0.71998 2.29496,-2.11498 2.295,-4.185 -4e-5,-1.61998 -0.99004,-3.01498 -2.97,-4.185 -1.98003,-1.25998 -4.99503,-2.65497 -9.045,-4.185 -3.15002,-1.16997 -6.03002,-2.38497 -8.64,-3.645 -2.52001,-1.25997 -4.68001,-2.74497 -6.48,-4.455 -1.80001,-1.79996 -3.19501,-3.91496 -4.185,-6.345 -0.99001,-2.42996 -1.48501,-5.35495 -1.485,-8.775 -10e-6,-6.65994 2.47499,-11.92494 7.425,-15.795 4.94998,-3.86993 11.74498,-5.80493 20.385,-5.805 4.31996,7e-5 8.45996,0.40507 12.42,1.215 3.95995,0.72007 7.10995,1.53007 9.45,2.43 l -3.51,15.66 c -2.34005,-0.80995 -4.90505,-1.52995 -7.695,-2.16 -2.70004,-0.62994 -5.76004,-0.94494 -9.18,-0.945 -6.30003,6e-5 -9.45002,1.75505 -9.45,5.265 -2e-5,0.81005 0.13497,1.53005 0.405,2.16 0.26997,0.63005 0.80997,1.26005 1.62,1.89 0.80997,0.54005 1.88997,1.17005 3.24,1.89 1.43997,0.63004 3.23997,1.35004 5.4,2.16 4.40996,1.62004 8.05496,3.24004 10.935,4.86 2.87995,1.53004 5.12995,3.24003 6.75,5.13 1.70995,1.80003 2.87994,3.82503 3.51,6.075 0.71994,2.25002 1.07994,4.86002 1.08,7.83 -6e-5,7.02001 -2.65506,12.33001 -7.965,15.93 -5.22004,3.6 -12.64504,5.4 -22.275,5.4 -6.30002,0 -11.56502,-0.54 -15.795,-1.62 -4.14001,-1.08 -7.02,-1.98 -8.64,-2.7 l 3.375,-16.335 c 3.41999,1.35002 6.92999,2.43002 10.53,3.24 3.59998,0.72001 7.15498,1.08001 10.665,1.08"
             inkscape:connector-curvature="0" />
        </g>
      </g>
      <g
         inkscape:label="Layer 1"
         id="layer1-2"
         transform="translate(883.67963,589.48375)">
        <g
           id="g3052">
          <path
             style="fill:#326ce5;fill-opacity:1;stroke:#ffffff;stroke-width:0;stroke-miterlimit:4;stroke-opacity:1;stroke-dasharray:none"
             d="m 365.3125,184.8125 a 46.724621,46.342246 0 0 0 -17.90625,4.53125 l -244.34375,116.75 a 46.724621,46.342246 0 0 0 -25.28125,31.4375 L 17.5,599.78125 A 46.724621,46.342246 0 0 0 23.84375,635.3125 46.724621,46.342246 0 0 0 26.5,639 l 169.125,210.28125 a 46.724621,46.342246 0 0 0 36.53125,17.4375 L 503.375,866.65625 A 46.724621,46.342246 0 0 0 539.90625,849.25 L 708.96875,638.9375 A 46.724621,46.342246 0 0 0 718,599.71875 l -60.375,-262.25 a 46.724621,46.342246 0 0 0 -25.28125,-31.4375 l -244.375,-116.6875 A 46.724621,46.342246 0 0 0 365.3125,184.8125 z"
             id="path3055"
             inkscape:connector-curvature="0"
             inkscape:export-filename="new.png"
             inkscape:export-xdpi="250.55"
             inkscape:export-ydpi="250.55" />
          <path
             inkscape:connector-curvature="0"
             id="path3059"
             d="m 367.73366,274.05962 c -8.07696,8.2e-4 -14.62596,7.27591 -14.625,16.25 1e-5,0.13773 0.0282,0.26934 0.0312,0.40625 -0.0119,1.21936 -0.0708,2.68836 -0.0312,3.75 0.19262,5.176 1.3209,9.13749 2,13.90625 1.23028,10.20666 2.26117,18.66736 1.625,26.53125 -0.61869,2.9654 -2.80288,5.67741 -4.75,7.5625 l -0.34375,6.1875 c -8.77682,0.72717 -17.61235,2.05874 -26.4375,4.0625 -37.97461,8.62218 -70.67008,28.18307 -95.5625,54.59375 -1.61522,-1.10193 -4.44103,-3.12914 -5.2813,-3.75 -2.61117,0.35262 -5.25021,1.15829 -8.6875,-0.84375 -6.54491,-4.40563 -12.50587,-10.48693 -19.71875,-17.8125 -3.30498,-3.50419 -5.69832,-6.84101 -9.625,-10.21875 -0.89172,-0.76707 -2.25258,-1.80455 -3.25,-2.59375 -3.06988,-2.44757 -6.6907,-3.72402 -10.1875,-3.84375 -4.49589,-0.15394 -8.82394,1.60385 -11.65625,5.15625 -5.03521,6.31538 -3.42312,15.96805 3.59375,21.5625 0.0712,0.0567 0.14702,0.10078 0.21875,0.15625 0.96422,0.78162 2.14496,1.78313 3.03125,2.4375 4.16687,3.07655 7.9732,4.65145 12.125,7.09375 8.747,5.40181 15.99837,9.88086 21.75,15.28125 2.24602,2.39417 2.63858,6.61292 2.9375,8.4375 l 4.6875,4.1875 c -25.09342,37.76368 -36.70686,84.40946 -29.8437,131.9375 l -6.125,1.78125 c -1.6143,2.08461 -3.89541,5.36474 -6.2813,6.34375 -7.52513,2.37021 -15.99424,3.24059 -26.21875,4.3125 -4.80031,0.39915 -8.94218,0.16095 -14.03125,1.125 -1.12008,0.21218 -2.68072,0.61877 -3.90625,0.90625 -0.0426,0.009 -0.0824,0.0216 -0.125,0.0312 -0.0668,0.0155 -0.15456,0.0479 -0.21875,0.0625 -8.62014,2.08279 -14.15774,10.006 -12.375,17.8125 1.78316,7.80833 10.20314,12.55677 18.875,10.6875 0.0626,-0.0143 0.1535,-0.0167 0.21875,-0.0312 0.0979,-0.0224 0.18409,-0.0699 0.28125,-0.0937 1.20885,-0.26536 2.72377,-0.5606 3.78125,-0.84375 5.00334,-1.33963 8.62694,-3.30796 13.125,-5.03125 9.67694,-3.47077 17.69173,-6.37022 25.5,-7.5 3.26118,-0.25542 6.69711,2.01216 8.40625,2.96875 l 6.375,-1.09375 c 14.67018,45.48282 45.41416,82.24502 84.34375,105.3125 l -2.65625,6.375 c 0.95742,2.47542 2.01341,5.8247 1.30022,8.26932 -2.83868,7.3612 -7.70097,15.13097 -13.23772,23.79318 -2.68085,4.00192 -5.42453,7.10761 -7.84375,11.6875 -0.5789,1.09589 -1.31618,2.77932 -1.875,3.9375 -3.75884,8.04236 -1.00164,17.3052 6.21875,20.78125 7.26575,3.49788 16.28447,-0.19134 20.1875,-8.25 0.006,-0.0114 0.0257,-0.0198 0.0312,-0.0312 0.004,-0.009 -0.004,-0.0225 0,-0.0312 0.55593,-1.14255 1.34353,-2.64437 1.8125,-3.71875 2.07213,-4.74702 2.76161,-8.81506 4.21875,-13.40625 3.86962,-9.72014 5.99567,-19.91903 11.32258,-26.27411 1.45868,-1.74023 3.83681,-2.4095 6.30242,-3.06964 l 3.3125,-6 c 33.93824,13.0268 71.92666,16.52246 109.875,7.90625 8.65697,-1.96557 17.01444,-4.50945 25.09375,-7.5625 0.93098,1.65133 2.66113,4.8257 3.125,5.625 2.50559,0.81518 5.24044,1.23614 7.46875,4.53125 3.98539,6.80898 6.7109,14.86416 10.03125,24.59375 1.45738,4.59111 2.17762,8.65933 4.25,13.40625 0.47234,1.08195 1.256,2.60486 1.8125,3.75 3.89482,8.08484 12.94212,11.78667 20.21875,8.28125 7.2195,-3.4779 9.97974,-12.7399 6.21875,-20.78125 -0.55889,-1.15814 -1.3273,-2.84164 -1.90625,-3.9375 -2.41946,-4.57976 -5.1627,-7.65448 -7.84375,-11.65625 -5.53721,-8.66192 -10.12968,-15.8577 -12.96875,-23.21875 -1.18711,-3.79657 0.20028,-6.15774 1.125,-8.625 -0.55378,-0.63477 -1.73881,-4.22009 -2.4375,-5.90625 40.4574,-23.88816 70.29856,-62.02129 84.3125,-106.0625 1.8924,0.29742 5.18154,0.87936 6.25,1.09375 2.19954,-1.4507 4.22194,-3.34352 8.1875,-3.03125 7.80832,1.12937 15.82288,4.02973 25.5,7.5 4.49815,1.72306 8.1216,3.72313 13.125,5.0625 1.05749,0.28309 2.57238,0.5472 3.78125,0.8125 0.0972,0.0238 0.1833,0.0714 0.28125,0.0937 0.0653,0.0146 0.15615,0.0169 0.21875,0.0312 8.67236,1.86695 17.09384,-2.87871 18.875,-10.6875 1.78074,-7.80696 -3.7543,-15.73201 -12.375,-17.8125 -1.25393,-0.28513 -3.03225,-0.76938 -4.25,-1 -5.08912,-0.96378 -9.23092,-0.7261 -14.03125,-1.125 -10.22456,-1.07138 -18.6935,-1.94269 -26.21875,-4.3125 -3.06826,-1.19028 -5.25103,-4.84124 -6.31255,-6.34375 l -5.90625,-1.71875 c 3.06226,-22.15442 2.23655,-45.21134 -3.0625,-68.28125 -5.34839,-23.28471 -14.80037,-44.58084 -27.40625,-63.34375 1.51505,-1.37729 4.37619,-3.91091 5.1875,-4.65625 0.23716,-2.62417 0.0334,-5.37553 2.75,-8.28125 5.75134,-5.40069 13.00329,-9.87898 21.75,-15.28125 4.15167,-2.44252 7.98954,-4.01698 12.15625,-7.09375 0.94225,-0.69576 2.2289,-1.79759 3.21875,-2.59375 7.01538,-5.59633 8.63058,-15.24842 3.59375,-21.5625 -5.03683,-6.31408 -14.79712,-6.90883 -21.8125,-1.3125 -0.99856,0.79085 -2.35353,1.82252 -3.25,2.59375 -3.9265,3.37796 -6.35145,6.71439 -9.65625,10.21875 -7.21249,7.32595 -13.17407,13.43777 -19.71875,17.84375 -2.83601,1.65106 -6.98996,1.07978 -8.87505,0.96875 l -5.5625,3.96875 c -31.7188,-33.26057 -74.90466,-54.52546 -121.40605,-58.6563 -0.13006,-1.94872 -0.30045,-5.47117 -0.34375,-6.53125 -1.90371,-1.82165 -4.20342,-3.37686 -4.78125,-7.3125 -0.63617,-7.86389 0.42597,-16.32459 1.65625,-26.53125 0.6791,-4.76876 1.80738,-8.73025 2,-13.90625 0.0438,-1.17663 -0.0265,-2.88401 -0.0312,-4.15625 -9.6e-4,-8.97409 -6.54804,-16.25082 -14.625,-16.25 z m -18.3125,113.4375 -4.34375,76.71875 -0.3125,0.15625 c -0.29134,6.86335 -5.93996,12.34375 -12.875,12.34375 -2.84081,0 -5.46294,-0.91229 -7.59375,-2.46875 l -0.125,0.0625 -62.90625,-44.59375 c 19.33365,-19.01115 44.06291,-33.06039 72.5625,-39.53125 5.20599,-1.18203 10.40966,-2.0591 15.59375,-2.6875 z m 36.65625,0 c 33.27347,4.09232 64.04501,19.15882 87.625,42.25 l -62.5,44.3125 -0.21875,-0.0937 c -5.54745,4.05169 -13.36343,3.04639 -17.6875,-2.375 -1.77132,-2.22096 -2.70072,-4.83239 -2.8125,-7.46875 l -0.0625,-0.0312 z m -147.625,70.875 57.4375,51.375 -0.0625,0.3125 c 5.18437,4.50697 5.94888,12.32794 1.625,17.75 -1.7712,2.22105 -4.14208,3.71074 -6.6875,4.40625 l -0.0625,0.25 -73.625,21.25 c -3.74728,-34.26517 4.32855,-67.57364 21.375,-95.34375 z m 258.15625,0.0312 c 8.5341,13.83256 14.99655,29.28214 18.84375,46.03125 3.80106,16.54828 4.75499,33.06697 3.1875,49.03125 l -74,-21.3125 -0.0625,-0.3125 c -6.6265,-1.81104 -10.69893,-8.55162 -9.15625,-15.3125 0.63203,-2.76962 2.10222,-5.11264 4.09375,-6.84375 l -0.0312,-0.15625 57.125,-51.125 z m -140.65625,55.3125 23.53125,0 14.625,18.28125 -5.25,22.8125 -21.125,10.15625 -21.1875,-10.1875 -5.25,-22.8125 z m 75.4375,62.5625 c 0.99997,-0.0505 1.99558,0.0396 2.96875,0.21875 l 0.125,-0.15625 76.15625,12.875 c -11.1455,31.3131 -32.47281,58.44018 -60.96875,76.59375 l -29.5625,-71.40625 0.0937,-0.125 c -2.71561,-6.30999 0.002,-13.70956 6.25,-16.71875 1.59965,-0.77041 3.27089,-1.19701 4.9375,-1.28125 z m -127.90625,0.3125 c 5.81174,0.0815 11.02462,4.11525 12.375,10.03125 0.63219,2.76958 0.3245,5.51375 -0.71875,7.9375 l 0.21875,0.28125 -29.25,70.6875 c -27.34716,-17.5486 -49.12927,-43.82403 -60.78125,-76.06245 l 75.5,-12.8125 0.125,0.15625 c 0.84451,-0.15541 1.701,-0.2304 2.53125,-0.21875 z m 63.78125,30.9688 c 2.02445,-0.0744 4.07865,0.34098 6.03125,1.28125 2.55951,1.23253 4.53673,3.17319 5.78125,5.5 l 0.28125,0 37.21875,67.25 c -4.83029,1.61923 -9.79609,3.00308 -14.875,4.15625 -28.46453,6.4629 -56.83862,4.50467 -82.53125,-4.25 l 37.125,-67.125 0.0625,0 c 2.22767,-4.16441 6.45247,-6.64887 10.90625,-6.8125 z"
             style="font-size:medium;font-style:normal;font-variant:normal;font-weight:normal;font-stretch:normal;text-indent:0;text-align:start;text-decoration:none;line-height:normal;letter-spacing:normal;word-spacing:normal;text-transform:none;direction:ltr;block-progression:tb;writing-mode:lr-tb;text-anchor:start;baseline-shift:baseline;color:#000000;fill:#ffffff;fill-opacity:1;stroke:#ffffff;stroke-width:0.25;stroke-miterlimit:4;stroke-opacity:1;stroke-dasharray:none;marker:none;visibility:visible;display:inline;overflow:visible;enable-background:accumulate;font-family:Sans;-inkscape-font-specification:Sans"
             sodipodi:nodetypes="ccccccccsccccscssccsccccccccscccsccccccccccccccscccscsccsccccscscsccccccccscccscsccccsccccscscscccccccccccccccscccsccccccccccccscccccscccccccccccccccccccccccscccscccccccccscccscccc"
             inkscape:export-filename="./path3059.png"
             inkscape:export-xdpi="250.55"
             inkscape:export-ydpi="250.55" />
        </g>
      </g>
    </g>
    <g
       id="g7481">
      <path
         style="fill:#000080;fill-opacity:1"
         inkscape:connector-curvature="0"
         d="m 515.03712,-854.76195 c 0,-9.9766 -8.08056,-18.0571 -18.05711,-18.0571 H 232.14186 c -9.97656,0 -18.05717,8.0805 -18.05717,18.0571 v 177.562 h 300.95243 v -177.562 z m -30.09523,147.4667 H 244.17997 v -135.4286 h 240.76192 v 135.4286 z m 30.09523,45.1429 H 214.08469 c -2.96434,5.5977 -30.09525,68.9482 -30.09525,75.208 0,7.8548 6.28989,15.0777 15.07772,15.0777 h 330.98752 c 8.78778,0 15.07772,-7.2229 15.07772,-15.0777 0,-6.2598 -27.13089,-69.6103 -30.09528,-75.208 z m -184.01736,75.2381 7.02728,-15.0477 h 53.01273 l 7.02728,15.0477 h -67.06729 z"
         id="path3313" />
      <text
         sodipodi:linespacing="125%"
         id="text3698"
         y="-468.30911"
         x="362.62473"
         style="font-size:72px;font-style:normal;font-variant:normal;font-weight:normal;font-stretch:normal;text-align:center;line-height:125%;letter-spacing:0px;word-spacing:0px;writing-mode:lr-tb;text-anchor:middle;fill:#000000;fill-opacity:1;stroke:none;font-family:Kefa;-inkscape-font-specification:Kefa"
         xml:space="preserve"><tspan
           id="tspan3702"
           y="-468.30911"
           x="362.62473"
           sodipodi:role="line">Users with access to</tspan><tspan
           id="tspan3706"
           y="-378.30911"
           x="362.62473"
           sodipodi:role="line">the git repository</tspan></text>
    </g>
    <g
       id="g4900"
       transform="translate(1700.8214,-1271.8292)">
      <g
         id="g4894">
        <path
           sodipodi:type="arc"
           style="fill:#33006f;fill-opacity:1;stroke:none"
           id="path4810"
           sodipodi:cx="343.57144"
           sodipodi:cy="225.93361"
           sodipodi:rx="199.28572"
           sodipodi:ry="199.28572"
           d="m 542.85716,225.93361 c 0,110.06246 -89.22325,199.28572 -199.28572,199.28572 -110.06246,0 -199.28572,-89.22326 -199.28572,-199.28572 0,-110.06247 89.22326,-199.285722 199.28572,-199.285722 110.06247,0 199.28572,89.223252 199.28572,199.285722 z"
           transform="matrix(0.48197069,-0.37166131,0.37166131,0.48197069,98.869317,182.44962)" />
        <g
           id="g4862"
           transform="matrix(0.42961605,-0.33128915,0.33128915,0.42961605,153.22593,182.84912)"
           style="fill:#ffffff">
          <path
             id="path4858"
             d="m 303.6875,40.15625 c -57.69917,0.955692 -112.26805,34.997327 -136.65625,91.40625 -4.13819,9.57148 -7.21961,19.33399 -9.28125,29.15625 l -34.6875,-5.46875 25.65625,53.6875 25.65625,53.71875 40.90625,-43.21875 40.9375,-43.21875 -34.4375,-5.40625 c 9.34505,-37.90166 43.55732,-66 84.34375,-66 29.14652,0 54.90179,14.37815 70.65625,36.40625 L 425,97.75 C 409.95512,78.673754 390.11147,62.941422 366.25,52.625 345.84677,43.803736 324.55741,39.810574 303.6875,40.15625 z"
             style="fill:#ffffff;fill-opacity:1;stroke:none"
             inkscape:connector-curvature="0" />
          <path
             id="path4790"
             d="M 445.625,118.96875 402.0625,159.5 358.5,200.03125 l 33.09375,7.375 c -7.39926,40.47327 -42.85878,71.15625 -85.46875,71.15625 -29.55852,0 -55.68311,-14.75898 -71.375,-37.3125 l -44.4375,48.15625 c 14.63841,17.3868 33.40784,31.74246 55.6875,41.375 76.81215,33.20946 166.00929,-2.12535 199.21875,-78.9375 4.30245,-9.9514 7.44283,-20.1232 9.5,-30.34375 l 35.3125,7.875 -22.1875,-55.1875 -22.21875,-55.21875 z"
             style="fill:#ffffff;fill-opacity:1;stroke:none"
             inkscape:connector-curvature="0" />
        </g>
      </g>
      <text
         xml:space="preserve"
         style="font-size:190px;font-style:normal;font-variant:normal;font-weight:bold;font-stretch:normal;text-align:center;line-height:125%;letter-spacing:0px;word-spacing:0px;writing-mode:lr-tb;text-anchor:middle;fill:#33006f;fill-opacity:1;stroke:none;font-family:Kefa;-inkscape-font-specification:Kefa Bold"
         x="958.9632"
         y="209.34171"
         id="text4866"
         sodipodi:linespacing="125%"><tspan
           sodipodi:role="line"
           x="958.9632"
           y="209.34171"
           id="tspan4870">autoapply</tspan></text>
    </g>
    <g
       id="g5167"
       transform="translate(0,-42.604718)">
      <g
         transform="matrix(0.23314644,0,0,-0.23314644,1659.7558,-136.27662)"
         id="g3441">
        <path
           id="path3443"
           style="fill:#362701;fill-opacity:1;fill-rule:nonzero;stroke:none"
           d="m 1308.73,601.652 c -47.88,0 -83.54,-23.511 -83.54,-80.093 0,-42.633 23.5,-72.227 80.96,-72.227 48.7,0 81.78,28.695 81.78,73.988 0,51.328 -29.6,78.332 -79.2,78.332 z M 1213,202.133 c -11.33,-13.906 -22.62,-28.68 -22.62,-46.117 0,-34.786 44.36,-45.254 105.3,-45.254 50.48,0 119.24,3.535 119.24,50.468 0,27.895 -33.08,29.622 -74.88,32.243 l -127.04,8.66 z m 257.61,396.89 c 15.64,-20.023 32.2,-47.878 32.2,-87.91 0,-96.601 -75.72,-153.164 -185.35,-153.164 -27.88,0 -53.12,3.473 -68.77,7.817 l -28.73,-46.118 85.28,-5.21 c 150.58,-9.594 239.32,-13.954 239.32,-129.661 0,-100.109 -87.88,-156.652 -239.32,-156.652 -157.52,0 -217.57,40.0391 -217.57,108.781 0,39.18 17.41,60.02 47.87,88.782 -28.73,12.144 -38.29,33.89 -38.29,57.398 0,19.16 9.56,36.562 25.25,53.109 15.66,16.52 33.06,33.078 53.95,52.219 -42.64,20.883 -74.85,66.141 -74.85,130.555 0,100.074 66.15,168.804 199.28,168.804 37.43,0 60.07,-3.445 80.09,-8.699 l 169.72,0 0,-73.957 -80.08,-6.094"
           inkscape:connector-curvature="0" />
        <path
           id="path3445"
           style="fill:#362701;fill-opacity:1;fill-rule:nonzero;stroke:none"
           d="m 1703.8,757.168 c -49.62,0 -78.33,28.746 -78.33,78.371 0,49.563 28.71,76.563 78.33,76.563 50.48,0 79.2,-27 79.2,-76.563 0,-49.625 -28.72,-78.371 -79.2,-78.371 z m -112.29,-523.012 0,68.719 44.4,6.074 c 12.19,1.766 13.92,4.356 13.92,17.442 l 0,255.867 c 0,9.555 -2.6,15.672 -11.33,18.262 l -46.99,16.55 9.57,70.469 180.17,0 0,-361.148 c 0,-13.95 0.84,-15.676 13.93,-17.442 l 44.39,-6.074 0,-68.719 -248.06,0"
           inkscape:connector-curvature="0" />
        <path
           id="path3447"
           style="fill:#362701;fill-opacity:1;fill-rule:nonzero;stroke:none"
           d="m 2183.73,267.895 c -37.44,-18.254 -92.26,-34.793 -141.89,-34.793 -103.56,0 -142.71,41.734 -142.71,140.121 l 0,228.004 c 0,5.211 0,8.707 -6.99,8.707 l -60.91,0 0,77.453 c 76.61,8.726 107.05,47.027 116.62,141.886 l 82.69,0 0,-123.625 c 0,-6.07 0,-8.699 6.97,-8.699 l 122.7,0 0,-87.015 -129.67,0 0,-207.989 c 0,-51.355 12.2,-71.355 59.17,-71.355 24.4,0 49.61,6.074 70.5,13.914 l 23.52,-76.609"
           inkscape:connector-curvature="0" />
        <path
           id="path3449"
           style="fill:#f03c2e;fill-opacity:1;fill-rule:nonzero;stroke:none"
           d="m 894.215,496.285 -397.938,397.91 c -22.898,22.918 -60.066,22.918 -82.996,0 L 330.652,811.559 435.469,706.738 c 24.367,8.227 52.297,2.711 71.711,-16.707 19.515,-19.539 24.992,-47.707 16.558,-72.156 l 101.024,-101.02 c 24.441,8.422 52.64,2.981 72.156,-16.57 27.285,-27.277 27.285,-71.476 0,-98.762 -27.289,-27.293 -71.488,-27.293 -98.789,0 -20.516,20.532 -25.59,50.676 -15.199,75.954 l -94.215,94.218 -0.008,-247.929 c 6.652,-3.293 12.93,-7.688 18.473,-13.207 27.277,-27.274 27.277,-71.465 0,-98.782 -27.285,-27.273 -71.504,-27.273 -98.762,0 -27.281,27.317 -27.281,71.508 0,98.782 6.742,6.73 14.543,11.824 22.867,15.238 l 0,250.23 c -8.324,3.403 -16.113,8.461 -22.867,15.239 -20.664,20.648 -25.641,50.976 -15.043,76.351 L 290.051,770.961 17.1992,498.125 c -22.92576,-22.937 -22.92576,-60.105 0,-83.027 L 415.133,17.1875 c 22.91,-22.91797 60.066,-22.91797 83.008,0 L 894.215,413.254 c 22.918,22.93 22.918,60.109 0,83.031"
           inkscape:connector-curvature="0" />
      </g>
      <text
         xml:space="preserve"
         style="font-size:72px;font-style:normal;font-variant:normal;font-weight:normal;font-stretch:normal;text-align:center;line-height:125%;letter-spacing:0px;word-spacing:0px;writing-mode:lr-tb;text-anchor:middle;fill:#000000;fill-opacity:1;stroke:none;font-family:Kefa;-inkscape-font-specification:Kefa"
         x="1914.2858"
         y="-33.352177"
         id="text4922"
         sodipodi:linespacing="125%"><tspan
           id="tspan4930"
           sodipodi:role="line"
           x="1914.2858"
           y="-33.352177">Repository with all Kubernetes</tspan><tspan
           id="tspan4934"
           sodipodi:role="line"
           x="1914.2858"
           y="56.647823">resource configuration files</tspan></text>
    </g>
    <g
       id="g5149"
       transform="translate(80.252664,-3.8534338)">
      <text
         sodipodi:linespacing="125%"
         id="text4942"
         y="-55.228897"
         x="883.75348"
         style="font-size:72px;font-style:normal;font-variant:normal;font-weight:normal;font-stretch:normal;text-align:center;line-height:125%;letter-spacing:0px;word-spacing:0px;writing-mode:lr-tb;text-anchor:middle;fill:#004000;fill-opacity:1;stroke:none;font-family:Kefa;-inkscape-font-specification:Kefa"
         xml:space="preserve"><tspan
           y="-55.228897"
           x="883.75348"
           sodipodi:role="line"
           id="tspan4946">Pull the</tspan><tspan
           id="tspan5043"
           y="34.771103"
           x="883.75348"
           sodipodi:role="line">latest changes</tspan></text>
      <g
         transform="translate(-686.82843,-575.65685)"
         id="g5071">
        <path
           sodipodi:type="arc"
           style="fill:#004000;fill-opacity:1;stroke:none"
           id="path5063"
           sodipodi:cx="1463.5"
           sodipodi:cy="474.86218"
           sodipodi:rx="39.5"
           sodipodi:ry="39.5"
           d="m 1503,474.86218 c 0,21.81525 -17.6848,39.5 -39.5,39.5 -21.8152,0 -39.5,-17.68475 -39.5,-39.5 0,-21.81525 17.6848,-39.5 39.5,-39.5 21.8152,0 39.5,17.68475 39.5,39.5 z"
           transform="translate(-82.058716,23.057617)" />
        <text
           sodipodi:linespacing="125%"
           id="text5055"
           y="521.91394"
           x="1380.8964"
           style="font-size:72px;font-style:normal;font-variant:normal;font-weight:normal;font-stretch:normal;text-align:center;line-height:125%;letter-spacing:0px;word-spacing:0px;writing-mode:lr-tb;text-anchor:middle;fill:#ffffff;fill-opacity:1;stroke:none;font-family:Kefa;-inkscape-font-specification:Kefa"
           xml:space="preserve"><tspan
             id="tspan5059"
             y="521.91394"
             x="1380.8964"
             sodipodi:role="line">1</tspan></text>
      </g>
    </g>
    <g
       id="g5129"
       transform="translate(258.28378,120.55916)">
      <text
         xml:space="preserve"
         style="font-size:72px;font-style:normal;font-variant:normal;font-weight:normal;font-stretch:normal;text-align:center;line-height:125%;letter-spacing:0px;word-spacing:0px;writing-mode:lr-tb;text-anchor:middle;fill:#004000;fill-opacity:1;stroke:none;font-family:Kefa;-inkscape-font-specification:Kefa"
         x="1857.5405"
         y="-847.18842"
         id="text4997"
         sodipodi:linespacing="125%"><tspan
           id="tspan5003"
           sodipodi:role="line"
           x="1857.5405"
           y="-847.18842">Pull new changes</tspan><tspan
           id="tspan5112"
           sodipodi:role="line"
           x="1857.5405"
           y="-757.18842">every minute</tspan><tspan
           id="tspan5122"
           sodipodi:role="line"
           x="1857.5405"
           y="-667.18842">(or via web hook)</tspan></text>
      <g
         transform="translate(113.15381,-8.029691)"
         id="g5099">
        <path
           transform="translate(-66.852093,-1338.4021)"
           d="m 1503,474.86218 c 0,21.81525 -17.6848,39.5 -39.5,39.5 -21.8152,0 -39.5,-17.68475 -39.5,-39.5 0,-21.81525 17.6848,-39.5 39.5,-39.5 21.8152,0 39.5,17.68475 39.5,39.5 z"
           sodipodi:ry="39.5"
           sodipodi:rx="39.5"
           sodipodi:cy="474.86218"
           sodipodi:cx="1463.5"
           id="path5065"
           style="fill:#004000;fill-opacity:1;stroke:none"
           sodipodi:type="arc" />
        <text
           xml:space="preserve"
           style="font-size:72px;font-style:normal;font-variant:normal;font-weight:normal;font-stretch:normal;text-align:center;line-height:125%;letter-spacing:0px;word-spacing:0px;writing-mode:lr-tb;text-anchor:middle;fill:#ffffff;fill-opacity:1;stroke:none;font-family:Kefa;-inkscape-font-specification:Kefa"
           x="1396.103"
           y="-839.54578"
           id="text5067"
           sodipodi:linespacing="125%"><tspan
             sodipodi:role="line"
             x="1396.103"
             y="-839.54578"
             id="tspan5069">3</tspan></text>
      </g>
    </g>
    <g
       id="g5158"
       transform="translate(28.638647,-143.61232)">
      <text
         xml:space="preserve"
         style="font-size:72px;font-style:normal;font-variant:normal;font-weight:normal;font-stretch:normal;text-align:center;line-height:125%;letter-spacing:0px;word-spacing:0px;writing-mode:lr-tb;text-anchor:middle;fill:#004000;fill-opacity:1;stroke:none;font-family:Kefa;-inkscape-font-specification:Kefa"
         x="1135.0138"
         y="-501.51749"
         id="text4950"
         sodipodi:linespacing="125%"><tspan
           sodipodi:role="line"
           x="1135.0138"
           y="-501.51749"
           id="tspan6757">Edit the files as</tspan><tspan
           sodipodi:role="line"
           x="1135.0138"
           y="-411.51749"
           id="tspan6755">needed and push the</tspan><tspan
           id="tspan5041"
           sodipodi:role="line"
           x="1135.0138"
           y="-321.51749">modifications</tspan></text>
      <g
         transform="translate(-582.23197,-845.98347)"
         id="g5082">
        <path
           sodipodi:type="arc"
           style="fill:#004000;fill-opacity:1;stroke:none"
           id="path5076"
           sodipodi:cx="1463.5"
           sodipodi:cy="474.86218"
           sodipodi:rx="39.5"
           sodipodi:ry="39.5"
           d="m 1503,474.86218 c 0,21.81525 -17.6848,39.5 -39.5,39.5 -21.8152,0 -39.5,-17.68475 -39.5,-39.5 0,-21.81525 17.6848,-39.5 39.5,-39.5 21.8152,0 39.5,17.68475 39.5,39.5 z"
           transform="translate(-62.322789,-160.87341)" />
        <text
           sodipodi:linespacing="125%"
           id="text5078"
           y="337.98291"
           x="1400.6323"
           style="font-size:72px;font-style:normal;font-variant:normal;font-weight:normal;font-stretch:normal;text-align:center;line-height:125%;letter-spacing:0px;word-spacing:0px;writing-mode:lr-tb;text-anchor:middle;fill:#ffffff;fill-opacity:1;stroke:none;font-family:Kefa;-inkscape-font-specification:Kefa"
           xml:space="preserve"><tspan
             id="tspan5080"
             y="337.98291"
             x="1400.6323"
             sodipodi:role="line">2</tspan></text>
      </g>
    </g>
    <g
       id="g5139"
       transform="translate(-189.75,-14.621622)">
      <g
         id="g6935"
         transform="translate(-58.95608,-16.844594)">
        <text
           xml:space="preserve"
           style="font-size:72px;font-style:normal;font-variant:normal;font-weight:normal;font-stretch:normal;text-align:center;line-height:125%;letter-spacing:0px;word-spacing:0px;writing-mode:lr-tb;text-anchor:middle;fill:#004000;fill-opacity:1;stroke:none;font-family:Kefa;-inkscape-font-specification:Kefa"
           x="3312.1602"
           y="-810.82294"
           id="text5005"
           sodipodi:linespacing="125%"><tspan
             id="tspan5011"
             sodipodi:role="line"
             x="3312.1602"
             y="-810.82294">Apply changes to</tspan><tspan
             sodipodi:role="line"
             x="3312.1602"
             y="-720.82294"
             id="tspan5037">the cluster by calling</tspan><tspan
             sodipodi:role="line"
             x="3312.1602"
             y="-630.82294"
             id="tspan5039">kubectl apply</tspan></text>
        <g
           id="g5124"
           transform="translate(795.50041,-1488.8362)">
          <path
             transform="translate(711.32847,178.25596)"
             d="m 1503,474.86218 c 0,21.81525 -17.6848,39.5 -39.5,39.5 -21.8152,0 -39.5,-17.68475 -39.5,-39.5 0,-21.81525 17.6848,-39.5 39.5,-39.5 21.8152,0 39.5,17.68475 39.5,39.5 z"
             sodipodi:ry="39.5"
             sodipodi:rx="39.5"
             sodipodi:cy="474.86218"
             sodipodi:cx="1463.5"
             id="path5087"
             style="fill:#004000;fill-opacity:1;stroke:none"
             sodipodi:type="arc" />
          <text
             xml:space="preserve"
             style="font-size:72px;font-style:normal;font-variant:normal;font-weight:normal;font-stretch:normal;text-align:center;line-height:125%;letter-spacing:0px;word-spacing:0px;writing-mode:lr-tb;text-anchor:middle;fill:#ffffff;fill-opacity:1;stroke:none;font-family:Kefa;-inkscape-font-specification:Kefa"
             x="2174.2834"
             y="677.1123"
             id="text5089"
             sodipodi:linespacing="125%"><tspan
               sodipodi:role="line"
               x="2174.2834"
               y="677.1123"
               id="tspan5091">4</tspan></text>
        </g>
      </g>
    </g>
    <path
       sodipodi:type="star"
       style="fill:#e8e8e8;fill-opacity:1;stroke:none"
       id="path6752"
       sodipodi:sides="3"
       sodipodi:cx="492.31833"
       sodipodi:cy="1347.1877"
       sodipodi:r1="147.38351"
       sodipodi:r2="73.691757"
       sodipodi:arg1="0.47569522"
       sodipodi:arg2="1.5228928"
       inkscape:flatsided="false"
       inkscape:rounded="0"
       inkscape:randomized="0"
       d="m 623.33852,1414.683 -127.49145,6.112 -127.49144,6.1119 58.4526,-113.4668 58.4526,-113.4668 69.03885,107.3549 z"
       transform="matrix(0.51922576,-0.54724677,0.54724677,0.51922576,-491.29136,-654.42933)"
       inkscape:transform-center-x="-10.369266"
       inkscape:transform-center-y="18.327555" />
    <path
       inkscape:transform-center-y="-23.664393"
       inkscape:transform-center-x="4.6573232"
       transform="matrix(0.74782952,0.09912329,-0.09912329,0.74782952,1259.5219,-1415.6119)"
       d="m 623.33852,1414.683 -127.49145,6.112 -127.49144,6.1119 58.4526,-113.4668 58.4526,-113.4668 69.03885,107.3549 z"
       inkscape:randomized="0"
       inkscape:rounded="0"
       inkscape:flatsided="false"
       sodipodi:arg2="1.5228928"
       sodipodi:arg1="0.47569522"
       sodipodi:r2="73.691757"
       sodipodi:r1="147.38351"
       sodipodi:cy="1347.1877"
       sodipodi:cx="492.31833"
       sodipodi:sides="3"
       id="path6791"
       style="fill:#e8e8e8;fill-opacity:1;stroke:none"
       sodipodi:type="star" />
    <path
       sodipodi:type="star"
       style="fill:#e8e8e8;fill-opacity:1;stroke:none"
       id="path6793"
       sodipodi:sides="3"
       sodipodi:cx="492.31833"
       sodipodi:cy="1347.1877"
       sodipodi:r1="147.38351"
       sodipodi:r2="73.691757"
       sodipodi:arg1="0.47569522"
       sodipodi:arg2="1.5228928"
       inkscape:flatsided="false"
       inkscape:rounded="0"
       inkscape:randomized="0"
       d="m 623.33852,1414.683 -127.49145,6.112 -127.49144,6.1119 58.4526,-113.4668 58.4526,-113.4668 69.03885,107.3549 z"
       transform="matrix(0.61857748,0.43178273,-0.43178273,0.61857748,2499.906,-1949.2809)"
       inkscape:transform-center-x="25.951432"
       inkscape:transform-center-y="2.1061975" />
    <path
       style="fill:none;stroke:#f6f8fa;stroke-width:20;stroke-linecap:butt;stroke-linejoin:miter;stroke-miterlimit:4;stroke-opacity:1;stroke-dasharray:none"
       d="M 0,-4.1384277 0,1475.8616 l 3600,0 0,-1480.0000277 z"
       id="path3194"
       inkscape:connector-curvature="0"
       transform="translate(-61.761993,-1329.4752)"
       sodipodi:nodetypes="ccccc" />
  </g>
</svg>
